# xmcd
#
# Track frame offsets:
# 150
# 2114
# 40950
# 50852
# 111156
# 131243
# 175562
# 203170
# 216513
# 257030
# 269439
# 284884
# 334344
#
# Disc length: 4731 seconds
#
#
# Revision: 0
# Processed by: cddbd v1.5.2PL0 Copyright (c) Steve Scherf et al.
# Submitted via: FreeRIP 2.951 
#
DISCID=d812790d
DTITLE=Fela Kuti - De Great Non Stop Mix
DYEAR=1900
DGENRE=Afropop
TTITLE0=Intro Don't Worry About My Press
TTITLE1=Trouble Sleep Wanga Wake Am
TTITLE2=Colometerlity
TTITLE3=Beast of No Nation (Basket Mouth)
TTITLE4=Stalemate
TTITLE5=Original Suffver Head
TTITLE6=Yellow Fever
TTITLE7=Zombie
TTITLE8=Teacher Don't Teach Me Nonsense
TTITLE9=No Agreement
TTITLE10=Napio (Part One)
TTITLE11=Authority Stealing
TTITLE12=JJD
EXTD=
EXTT0=
EXTT1=
EXTT2=
EXTT3=
EXTT4=
EXTT5=
EXTT6=
EXTT7=
EXTT8=
EXTT9=
EXTT10=
EXTT11=
EXTT12=
PLAYORDER=
